<?xml version="1.0" encoding="utf-8"?>
<!-- Generator: Adobe Adobe Illustrator 24.2.0, SVG Export Plug-In . SVG Version: 6.00 Build 0)  -->
<svg version="1.1" id="Layer_1" xmlns="http://www.w3.org/2000/svg" xmlns:xlink="http://www.w3.org/1999/xlink" x="0px" y="0px"
	 width="1296px" height="1296px" viewBox="0 0 1296 1296" style="enable-background:new 0 0 1296 1296;" xml:space="preserve">
<style type="text/css">
	.st0{fill:#417669;}
	.st1{display:none;}
	.st2{display:inline;}
	.st3{fill:#9E6E28;stroke:#202927;stroke-width:5;stroke-miterlimit:10;}
	.st4{fill:#F1CCAD;stroke:#202927;stroke-width:5;stroke-miterlimit:10;}
	.st5{fill:#F3BB71;}
	.st6{fill:#9E6E28;}
</style>
<circle class="st0" cx="648" cy="648" r="620"/>
<g id="Layer_4" class="st1">
	<g id="Layer_3" class="st2">
		<path class="st3" d="M885.73,1034.74c-19.84-2.11-39.77-3.02-58.91-2.57c-21.48,61.14-44.74,121.83-69.75,182.03
			c16.97,2.96,33.95,5.92,50.92,8.88c10.86-32.28,21.71-64.57,32.57-96.85c7.38,0.71,14.75,1.43,22.13,2.14
			c-3.66,31.96-9.74,63.61-18.21,94.76c20.01,2.08,40.16,2.07,59.65-0.03C901.72,1160.5,894.02,1097.67,885.73,1034.74z"/>
		<path class="st3" d="M584.21,942.01c-43.43,32.06-88.04,63.02-133.28,93.63c9.97,8.51,19.94,17.01,29.9,25.52
			c20.21-14.48,40.41-28.96,60.62-43.44c-10.2,24.36-17.11,49.99-20.57,76.3c12.6,1.85,25.2,3.69,37.79,5.54
			c6.08,0.89,13.2,1.5,16.81-2.19c2.45-2.5,2.43-6.22,2.31-9.66c-0.72-20.3-1.44-40.59-2.16-60.89c17.4,1.97,35.08,3.94,51.84,1.8
			c16.76-2.14,32.76-8.98,40.34-21.23c8.92-14.42,4.49-33.78-6.19-49.5c-10.68-15.71-26.78-28.59-42.59-41.15
			C606.89,925.72,594.48,934.43,584.21,942.01z"/>
	</g>
	<g id="Layer_2" class="st2">
		<path class="st4" d="M921.43,1036.1c3.81,64.06,7.61,128.11,11.42,192.17c14.76-1.84,29.51-3.68,44.27-5.52
			c-3.85-31.99-7.69-63.99-11.54-95.98c17.99,28.37,33.27,57.77,45.64,87.79c1.19-32.31-1.4-65.02-7.74-97.53
			c17.98,26.34,34.24,53.4,48.69,81c11.99-10.38,26.07-19.05,41.6-25.61c-30.43-54.01-63.39-107.19-98.8-159.36
			c-8.39,2.88-16.78,5.75-25.17,8.62c4.7,29.69,9.4,59.38,14,89.07c-2.89,0.63-5.78,1.26-8.67,1.89
			c-8.38-28.37-16.77-56.74-25.15-85.11C939.15,1028.32,928.81,1031.32,921.43,1036.1z"/>
		<path class="st4" d="M665.89,1038.57c7.97-11,16.99-21.76,29.6-29.19c12.61-7.43,29.44-11.14,45.09-6.98
			c16.29,4.33,28.87,16.59,34.77,29.88c5.89,13.29,5.95,27.53,4.13,41.12c-4.94,36.92-23.51,71.67-52.66,98.56
			c-12.68,11.7-29.49,22.54-49.3,21.07c-19.28-1.43-36.15-14.79-43.58-29.9c-7.43-15.11-7-31.6-4.35-47.14
			C634.37,1087.85,648.62,1062.41,665.89,1038.57z"/>
	</g>
</g>
<path class="st5" d="M700.39,248.3c-121.52,156.06-228.4,317.67-319.61,483.27c-2.51,4.57,2.33,9.66,7.01,7.37l186.47-91.27
	c4.82-2.36,9.71,3.07,6.86,7.61C496.61,790.2,413.1,927.2,376.87,1071.03c-1.3,5.17,4.98,8.83,8.85,5.15
	c89.9-85.66,184.73-168.84,267.78-257.88c113.23-121.38,203.44-252.42,292.59-383.27c2.81-4.12-1.07-9.49-5.87-8.13l-230.89,65.8
	c-4.72,1.35-8.6-3.87-5.95-8l211.98-331.03c2.84-4.43-1.77-9.83-6.6-7.76C834.82,177.56,740.9,196.28,700.39,248.3z"/>
<path class="st6" d="M856.76,1106.99c-0.5-2.24-1.96-4.06-4.09-4.66c0-0.02,0.01-0.05,0.01-0.07c-5.17-0.67-10.33-1.59-15.44-2.62
	c-15.02-3.18-29.94-6.93-44.7-11.18c-18.54-5.63-36.88-11.86-55.24-18.03c-0.54-1.26-1.18-2.48-1.99-3.6
	c-1.94-1.83-4.46-3.03-6.87-4.12c-14.41-5.82-29.71-9.05-44.49-13.77c-19.17-6.26-38.03-13.39-56.89-20.52
	c-5.7-2.37-11.38-4.79-17.02-7.3c-2.46-1.07-4.91-2.17-7.35-3.29c-3.25-1.65-6.55-3.23-9.84-4.78c-1.8-0.83-3.61-1.65-5.42-2.46
	c-7.1-3.47-14.16-7.02-21.25-10.52c-11.23-5.61-22.72-10.64-34.17-15.77c-6.45-2.66-12.62-6.45-19.37-8.31
	c-2.76-1.62-5.51-3.27-8.29-4.86c-0.23-0.14-0.45-0.27-0.68-0.41c-1.13-0.88-2.26-1.77-3.35-2.7c-2.46-1.95-4.63-4.25-7.46-5.69
	c-0.86-0.5-1.82-0.55-2.71-0.3c-2.34-1.48-4.71-2.91-7.12-4.26c-1.04-0.51-9.79-6.08-14.99-8.32c-5.54-3.14-11.53-6.04-18.75-8.62
	c-0.65-0.23-1.32-0.42-1.97-0.64c-3.92-3.55-7.86-7.09-11.83-10.6c-2.06-1.79-4.11-3.6-6.17-5.41c-3.57-4.02-7.19-7.98-10.95-11.81
	c-6.99-7.88-14.61-15.12-22.27-22.33c-10.94-10.53-22.03-20.9-33.41-30.96c-7.83-6.62-14.98-13.98-22.85-20.55
	c-7.55-6.33-15.36-12.36-23.43-18.02c-1.64-2.07-3.31-4.12-5.04-6.12c-21.08-23.16-44.07-37.58-71.11-50.97
	c-0.35-0.08-0.55,0.17-0.67,0.48c-0.22-0.29-0.45-0.57-0.67-0.86c-0.02-0.03-0.05-0.06-0.07-0.1c-1.06-1.43-2.29-1.8-3.68-1.12
	c-1.78,0.2-3.14,1.18-4.07,2.95c-3.58,5.03-5.65,10.99-7.13,16.95c-1.32,5.9-2.35,11.87-2.61,17.91c-3.16,0.72-4.32,4.72-6.1,7.17
	c-3.43,7.19-5.38,15.01-6.41,22.91c-0.13-0.12-0.24-0.24-0.37-0.35c-2.18-2.09-4.62-3.88-7.2-5.46c-0.68-0.42-1.36-0.84-2.04-1.26
	c-1.51-0.04-2.68,0.53-3.52,1.71c-1.03,0.8-1.81,1.8-2.34,3.01c-1.63,2.32-2.62,4.95-3.57,7.62c-1.86,5.63-3.45,12.41-4.02,19.17
	c-0.28,0.24-0.56,0.51-0.81,0.85c-1.66,1.39-2.89,3.12-3.7,5.19c-4.04,8.47-5.76,17.75-6.56,27.04c-0.6,8.51,0.03,16.74,4.46,24.08
	c1.2,2.4,2.53,4.72,3.96,6.97c-0.61,6.92-0.32,13.88,1.58,20.57c1.65,4.71,4.99,8.41,8.23,12.09c3.74,4.32,7.96,8.19,11.92,12.31
	c6.8,7.31,13.49,14.72,20.26,22.06c4.88,5.5,9.68,11.08,14.48,16.66c1.74,2.32,3.67,4.52,5.48,6.67c1.85,2.08,3.72,4.14,5.6,6.19
	c7.27,8.4,14.62,16.72,22.28,24.76c7.45,7.53,15.03,14.91,22.91,21.99c2.48,2.15,4.79,4.56,7.68,6.16c1.57,0.04,2.81-0.49,3.75-1.6
	c0.48,0.36,0.97,0.72,1.45,1.08c0.31,2.82,0.91,5.58,2.65,7.92c1.29,0.95,2.59,1.88,3.9,2.79c7.34,5.68,14.73,11.29,22.25,16.72
	c0.37,3.31,1.18,6.29,2.58,8.63c1.34,1.71,3.47,2.6,5.24,3.8c1.97,1.21,3.97,2.38,6,3.47c3.86,2.29,7.85,4.31,11.91,6.2
	c2.3,2.51,4.64,4.99,7.07,7.38c4.13,3.78,9.15,6.75,14.51,8.37c1.45,0.44,2.98,0.22,4.35-0.37c0.42-0.3,0.8-0.66,1.18-1.02
	c10.87,5.36,21.97,10.25,33.11,15.06c3.57,1.81,7.19,3.52,10.81,5.23c2,0.78,3.92,2.28,6.13,2.17c1.55,0.04,2.76-0.54,3.62-1.76
	c3.73-3.29,5.25-8.62,6.68-13.25c0.54-1.54,0.96-3.1,1.32-4.68c3.41,2.16,6.83,4.3,10.28,6.38c22.15,12.9,44.8,25.12,68.5,34.94
	c11.12,4.34,22.6,8.18,34.37,10.34c0.7,1.24,1.76,2.13,3.21,2.67c2.64,0.69,5.27,1.41,7.92,2.06c7.23,1.67,14.5,3.12,21.79,4.47
	c0.81,1.4,1.78,2.68,2.98,3.73c4.2,4.02,7.92,9.24,13.9,10.55c19.99,1.98,40.11,1.54,60.19,0.87c2.78,0.47,5.54,1.08,8.34,1.4
	c14.9,1.22,29.91,0.5,44.83-0.04c4.55-0.16,9.1-0.49,13.64-0.75c1.87-0.09,3.8,0.28,5.6-0.39c0.82-0.27,1.8-0.25,2.49-0.75
	c0.18-0.13,0.33-0.27,0.5-0.4c9.41-0.68,18.8-1.58,28.12-3.12c6.55-1.21,13.6-1.8,19.35-5.38c5.89-4.61,7.82-12.77,9.89-19.62
	c0.34-1.35,0.64-2.71,0.91-4.08c5.32-4.05,7.66-11.62,9.6-18.15c1.58,0.03,3.15,0.07,4.73,0.1c4.85,0.41,9.72,0.65,14.57,1.15
	c1.87,0.29,3.73,0.56,5.61,0.72c1.71,0.05,3.04-0.6,3.99-1.94c1.77-1.48,3.09-3.33,3.96-5.55c1.47-2.91,2.61-5.93,3.41-9.08
	c2.13-6.09,2.8-12.52,3.48-18.91C858.78,1119,858.47,1112.87,856.76,1106.99z"/>
</svg>
